<svg xmlns="http://www.w3.org/2000/svg" fill="currentcolor" viewBox="0 0 640 720"><path d="M 216 540 L 320 436 L 424 540 L 480 484 L 376 380 L 480 276 L 424 220 L 320 324 L 216 220 L 160 276 L 264 380 L 160 484 L 216 540 Z M 120 720 C 98 720 79.167 712.167 63.5 696.5 C 47.833 680.833 40 662 40 640 L 40 120 L 0 120 L 0 40 L 200 40 L 200 0 L 440 0 L 440 40 L 640 40 L 640 120 L 600 120 L 600 640 C 600 662 592.167 680.833 576.5 696.5 C 560.833 712.167 542 720 520 720 L 120 720 Z M 520 120 L 120 120 L 120 640 L 520 640 L 520 120 Z M 120 120 L 120 640 L 120 120 Z"/></svg>