<?xml version="1.0" encoding="utf-8"?>
<svg xmlns="http://www.w3.org/2000/svg" viewBox="0 -960 960 960" fill="currentcolor">
  <path d="M 106.667 -106.67 L 182.667 -106.67 L 704 -628 L 628 -704 L 106.667 -182.67 L 106.667 -106.67 Z M 0 0 L 0 -226.67 L 704 -929.33 C 714.667 -939.11 726.444 -946.67 739.333 -952 C 752.223 -957.33 765.777 -960 780 -960 C 794.223 -960 808 -957.33 821.333 -952 C 834.667 -946.67 846.223 -938.67 856 -928 L 929.333 -853.33 C 940 -843.56 947.777 -832 952.667 -818.67 C 957.556 -805.33 960 -792 960 -778.67 C 960 -764.44 957.556 -750.89 952.667 -738 C 947.777 -725.11 940 -713.33 929.333 -702.67 L 226.667 0 L 0 0 Z M 853.333 -778.67 L 778.667 -853.33 L 853.333 -778.67 Z M 665.333 -665.33 L 628 -704 L 704 -628 L 665.333 -665.33 Z"/>
</svg>