<svg xmlns="http://www.w3.org/2000/svg" fill="currentcolor" viewBox="0 0 960 960"><path d="M 106.667 853.333 L 853.333 853.333 L 853.333 364 L 596 106.667 L 106.667 106.667 L 106.667 853.333 Z M 106.667 960 C 77.333 960 52.223 949.556 31.333 928.667 C 10.444 907.777 0 882.667 0 853.333 L 0 106.667 C 0 77.333 10.444 52.223 31.333 31.333 C 52.223 10.444 77.333 0 106.667 0 L 640 0 L 960 320 L 960 853.333 C 960 882.667 949.556 907.777 928.667 928.667 C 907.777 949.556 882.667 960 853.333 960 L 106.667 960 Z M 213.333 746.667 L 746.667 746.667 L 746.667 640 L 213.333 640 L 213.333 746.667 Z M 213.333 533.333 L 746.667 533.333 L 746.667 426.667 L 213.333 426.667 L 213.333 533.333 Z M 213.333 320 L 586.667 320 L 586.667 213.333 L 213.333 213.333 L 213.333 320 Z M 106.667 853.333 L 106.667 106.667 L 106.667 853.333 Z"/></svg>