<svg xmlns="http://www.w3.org/2000/svg" fill="currentcolor" viewBox="0 -960 768 960"><path d="M 192 -96 L 576 -96 L 576 -240 C 576 -292.8 557.2 -338 519.6 -375.6 C 482 -413.2 436.8 -432 384 -432 C 331.2 -432 286 -413.2 248.4 -375.6 C 210.8 -338 192 -292.8 192 -240 L 192 -96 Z M 384 -528 C 436.8 -528 482 -546.8 519.6 -584.4 C 557.2 -622 576 -667.2 576 -720 L 576 -864 L 192 -864 L 192 -720 C 192 -667.2 210.8 -622 248.4 -584.4 C 286 -546.8 331.2 -528 384 -528 Z M 0 0 L 0 -96 L 96 -96 L 96 -240 C 96 -288.8 107.4 -334.6 130.2 -377.4 C 153 -420.2 184.8 -454.4 225.6 -480 C 184.8 -505.6 153 -539.8 130.2 -582.6 C 107.4 -625.4 96 -671.2 96 -720 L 96 -864 L 0 -864 L 0 -960 L 768 -960 L 768 -864 L 672 -864 L 672 -720 C 672 -671.2 660.6 -625.4 637.8 -582.6 C 615 -539.8 583.2 -505.6 542.4 -480 C 583.2 -454.4 615 -420.2 637.8 -377.4 C 660.6 -334.6 672 -288.8 672 -240 L 672 -96 L 768 -96 L 768 0 L 0 0 Z"/></svg>