<svg xmlns="http://www.w3.org/2000/svg" fill="currentcolor" viewBox="0 -960 960 960"><path d="M 307.2 -240 L 480 -412.8 L 652.8 -240 L 720 -307.2 L 547.2 -480 L 720 -652.8 L 652.8 -720 L 480 -547.2 L 307.2 -720 L 240 -652.8 L 412.8 -480 L 240 -307.2 L 307.2 -240 Z M 480 0 C 413.6 0 351.2 -12.6 292.8 -37.8 C 234.4 -63 183.6 -97.2 140.4 -140.4 C 97.2 -183.6 63 -234.4 37.8 -292.8 C 12.6 -351.2 0 -413.6 0 -480 C 0 -546.4 12.6 -608.8 37.8 -667.2 C 63 -725.6 97.2 -776.4 140.4 -819.6 C 183.6 -862.8 234.4 -897 292.8 -922.2 C 351.2 -947.4 413.6 -960 480 -960 C 546.4 -960 608.8 -947.4 667.2 -922.2 C 725.6 -897 776.4 -862.8 819.6 -819.6 C 862.8 -776.4 897 -725.6 922.2 -667.2 C 947.4 -608.8 960 -546.4 960 -480 C 960 -413.6 947.4 -351.2 922.2 -292.8 C 897 -234.4 862.8 -183.6 819.6 -140.4 C 776.4 -97.2 725.6 -63 667.2 -37.8 C 608.8 -12.6 546.4 0 480 0 Z M 480 -96 C 587.2 -96 678 -133.2 752.4 -207.6 C 826.8 -282 864 -372.8 864 -480 C 864 -587.2 826.8 -678 752.4 -752.4 C 678 -826.8 587.2 -864 480 -864 C 372.8 -864 282 -826.8 207.6 -752.4 C 133.2 -678 96 -587.2 96 -480 C 96 -372.8 133.2 -282 207.6 -207.6 C 282 -133.2 372.8 -96 480 -96 Z M 480 -480 Z"/></svg>