<?xml version="1.0" encoding="utf-8"?>
<svg xmlns="http://www.w3.org/2000/svg" viewBox="0 0 800 640" fill="currentColor">
  <path d="M 80 0 L 160 160 L 280 160 L 200 0 L 280 0 L 360 160 L 480 160 L 400 0 L 480 0 L 560 160 L 680 160 L 600 0 L 720 0 C 742 0 760.833 7.83 776.5 23.5 C 792.167 39.17 800 58 800 80 L 800 560 C 800 582 792.167 600.83 776.5 616.5 C 760.833 632.17 742 640 720 640 L 80 640 C 58 640 39.167 632.17 23.5 616.5 C 7.833 600.83 0 582 0 560 L 0 80 C 0 58 7.833 39.17 23.5 23.5 C 39.167 7.83 58 0 80 0 Z M 80 240 L 80 560 L 720 560 L 720 240 L 80 240 Z M 80 240 L 80 560 L 80 240 Z"/>
</svg>